<?xml version="1.0" encoding="iso-8859-1"?>
<!-- Generator: Adobe Illustrator 19.0.0, SVG Export Plug-In . SVG Version: 6.00 Build 0)  -->
<svg version="1.1" id="Layer_1" xmlns="http://www.w3.org/2000/svg" xmlns:xlink="http://www.w3.org/1999/xlink" x="0px" y="0px"
	 viewBox="0 0 512 512" style="enable-background:new 0 0 512 512;" xml:space="preserve">
<g>
	<g>
		<rect x="227.296" y="78.367" width="109.714" height="15.673"/>
	</g>
</g>
<g>
	<g>
		<path d="M420.606,36.571V20.898h-70.531v172.408h-64.888v15.673h64.888v211.592h15.673V208.98h26.122v245.551H214.239V254.208
			c19.312-3.68,33.959-20.682,33.959-41.049c0-6.026-1.293-11.753-3.598-16.933c21.063-2.132,37.557-19.966,37.557-41.582
			c0-1.553-0.084-3.079-0.248-4.537l-15.574,1.76c0.099,0.876,0.149,1.81,0.149,2.777c0,14.404-11.719,26.122-26.122,26.122
			c-3.781,0-7.375-0.814-10.623-2.266c-1.527-1.031-3.13-1.958-4.791-2.784c-6.487-4.757-10.708-12.43-10.708-21.072
			c0-10.396,6.16-19.798,15.706-23.961c3.273-1.435,6.777-2.162,10.417-2.162c3.882,0,7.599,0.824,11.095,2.471
			c1.366,0.633,2.691,1.402,3.939,2.289l9.075-12.779c-2.028-1.441-4.191-2.696-6.379-3.709c-5.555-2.617-11.519-3.945-17.729-3.945
			c-5.819,0-11.441,1.171-16.695,3.474c-7.071,3.082-12.96,7.985-17.266,13.998c-7.594-10.57-19.982-17.474-33.959-17.474
			c-23.046,0-41.796,18.75-41.796,41.796c0,21.615,16.494,39.45,37.557,41.582c-2.305,5.18-3.598,10.907-3.598,16.933
			c0,20.367,14.647,37.369,33.959,41.049V512h208.98V78.367h-41.796V36.571H420.606z M172.444,180.767
			c-14.405,0-26.123-11.719-26.123-26.122s11.719-26.122,26.122-26.122c14.404,0,26.122,11.719,26.122,26.122
			c0,8.642-4.222,16.315-10.708,21.072c-1.661,0.826-3.264,1.752-4.791,2.784C179.819,179.953,176.226,180.767,172.444,180.767z
			 M180.28,213.159c0-8.642,4.221-16.315,10.708-21.072c1.661-0.825,3.264-1.752,4.791-2.784c3.248-1.452,6.841-2.266,10.623-2.266
			c3.781,0,7.375,0.814,10.622,2.266c1.527,1.031,3.13,1.958,4.791,2.784c6.487,4.757,10.708,12.43,10.708,21.072
			c0,14.404-11.719,26.122-26.122,26.122C191.998,239.282,180.28,227.563,180.28,213.159z M391.872,496.327H214.239v-26.122h177.633
			V496.327z M391.872,94.041v99.265h-26.122V94.041H391.872z"/>
	</g>
</g>
<g>
	<g>
		<path d="M198.901,43.952c-10.549-7.899-26.482-16.816-44.683-16.816c-0.012,0-0.027,0-0.04,0
			c-31.983,0.022-57.051,27.593-58.103,28.766l-4.682,5.227l4.68,5.23c1.049,1.171,26.048,28.696,58.024,28.696
			c0.01,0,0.026,0,0.039,0c18.029-0.013,33.858-8.778,44.429-16.635v33.907h15.673V64.055l2.682-2.995l-2.682-2.998v-8.43
			c0-18.726,15.235-33.959,33.959-33.959V0C222.753,0,201.73,19.251,198.901,43.952z M154.125,79.381c-0.01,0-0.018,0-0.028,0
			c-17.376,0-32.979-11.33-40.884-18.248c7.929-6.939,23.577-18.312,40.976-18.323c0.01,0,0.018,0,0.028,0
			c17.372,0,32.974,11.327,40.884,18.248C187.172,67.998,171.525,79.368,154.125,79.381z"/>
	</g>
</g>
<g>
</g>
<g>
</g>
<g>
</g>
<g>
</g>
<g>
</g>
<g>
</g>
<g>
</g>
<g>
</g>
<g>
</g>
<g>
</g>
<g>
</g>
<g>
</g>
<g>
</g>
<g>
</g>
<g>
</g>
</svg>
