<?xml version="1.0" encoding="iso-8859-1"?>
<!-- Generator: Adobe Illustrator 19.0.0, SVG Export Plug-In . SVG Version: 6.00 Build 0)  -->
<svg version="1.1" id="Layer_1" xmlns="http://www.w3.org/2000/svg" xmlns:xlink="http://www.w3.org/1999/xlink" x="0px" y="0px"
	 viewBox="0 0 512 512" style="enable-background:new 0 0 512 512;" xml:space="preserve">
<g>
	<g>
		<path d="M449.257,141.285l-6.631,14.202c24.499,11.436,53.7,31.359,53.7,61.329c0,32.68-33.875,53.766-65.143,66.267
			c9.838-14.818,15.311-32.387,15.311-50.594c0-21.409-7.4-41.121-19.772-56.718c4.409-12.44,6.732-26.143,6.732-39.935
			c0-53.295-33.983-96.653-75.755-96.653c-41.772,0-75.755,43.358-75.755,96.653c0,5.943,0.437,11.786,1.254,17.516
			c-18.181,10.55-32.41,27.186-39.885,47.098c-17.098-17.772-40.778-28.042-65.88-28.042h-26.122c-6.78,0-13.388,0.748-19.751,2.156
			c-1.204-4.772-1.825-9.687-1.825-14.694c0-33.13,26.952-60.082,60.082-60.082c31.933,0,58.288,24.955,59.999,56.813l15.652-0.841
			c-0.643-11.971-4.062-23.158-9.587-32.981c4.794,0.001,9.606,0.05,14.405,0.153l0.332-15.669
			c-8.795-0.188-17.627-0.196-26.327-0.049c-13.807-14.27-33.154-23.099-54.475-23.099h-26.122
			c-41.772,0-75.755,33.983-75.755,75.755c0,11.088,2.434,22.011,7.074,31.976c-21.372,16.751-35.129,42.794-35.129,71.991
			c0,3.296,0.177,6.578,0.526,9.833c-23.998-12.818-44.735-31.286-44.735-56.853c0-32.829,34.588-53.818,63.604-65.645
			l-5.916-14.515C25.368,156.221,0,183.939,0,216.816c0,68.38,26.628,132.668,74.981,181.019
			C123.333,446.187,187.62,472.816,256,472.816c68.38,0,132.668-26.628,181.019-74.981C485.371,349.483,512,285.197,512,216.816
			C512,186.565,490.304,160.447,449.257,141.285z M430.822,232.49c0,24.026-11.498,46.717-30.813,60.977
			C380.7,298.812,359.3,303,336.458,305.922c-33.707-8.487-57.147-38.498-57.147-73.432c0-41.772,33.983-75.755,75.755-75.755
			S430.822,190.718,430.822,232.49z M357.7,54.857c33.13,0,60.082,36.328,60.082,80.98c0,9.246-1.213,18.411-3.497,27.053
			c-15.965-13.604-36.648-21.829-59.218-21.829h-25.614c-0.317-1.717-0.488-3.464-0.488-5.224c0-0.611,0.018-1.147,0.053-1.637
			l0.007-0.108c0.891-15.134,13.485-26.99,28.674-26.99c15.763,0,28.653,12.82,28.735,28.577l15.673-0.081
			c-0.126-24.354-20.047-44.168-44.408-44.168c-23.458,0-42.915,18.308-44.318,41.69c-0.061,0.855-0.09,1.745-0.09,2.718
			c0,2.18,0.178,4.346,0.493,6.489c-5.386,0.903-10.615,2.276-15.641,4.079c-0.335-3.479-0.526-7.001-0.526-10.569
			C297.618,91.185,324.57,54.857,357.7,54.857z M286.708,169.632c0.163,0.556,0.311,1.117,0.482,1.671
			c-14.632,16.216-23.553,37.678-23.553,61.187c0,20.726,7.128,41.028,20.071,57.165c2.586,3.225,5.394,6.25,8.376,9.079
			c-23.382-12.976-38.896-37.876-38.896-66.244C253.189,206.344,266.504,183.251,286.708,169.632z M280.977,310.398
			c-8.233,0.302-16.566,0.459-24.977,0.459c-0.053,0-0.107,0-0.16,0c2.847-4.74,5.256-9.726,7.199-14.895
			C268.36,301.491,274.383,306.345,280.977,310.398z M177.434,188.084c24.193-0.002,46.797,11.512,61.075,30.938
			c-0.652,4.397-0.994,8.893-0.994,13.468c0,17.706,5.011,34.295,13.751,48.355c-2.49,10.824-7.362,20.992-14.246,29.747
			c-10.501-0.292-20.845-0.826-30.986-1.591c18.357-6.794,31.478-24.475,31.478-45.164c0-26.544-21.596-48.139-48.14-48.139h-7.837
			v27.626l3.55,2.32c6.19,4.044,9.885,10.846,9.885,18.195s-3.695,14.151-9.885,18.196l-3.55,2.32v22.302
			c-2.757-0.323-5.493-0.667-8.21-1.025v-21.277l-3.551-2.32c-6.19-4.044-9.885-10.846-9.885-18.195
			c0-7.348,3.695-14.15,9.885-18.195l3.551-2.32v-27.626h-7.837c-26.544,0-48.14,21.596-48.14,48.139
			c0,13.575,5.658,25.848,14.728,34.608c-8.658-1.911-16.985-4.032-24.933-6.356c-3.62-8.96-5.465-18.445-5.465-28.251
			C101.679,222.067,135.662,188.084,177.434,188.084z M197.208,235.147v-2.82c14.128,3.515,24.629,16.309,24.629,31.51
			s-10.501,27.995-24.629,31.51v-2.819c8.482-7.074,13.434-17.511,13.434-28.691C210.643,252.656,205.69,242.219,197.208,235.147z
			 M157.651,292.526v2.82c-14.128-3.515-24.629-16.309-24.629-31.51s10.501-27.995,24.629-31.51v2.82
			c-8.482,7.074-13.434,17.51-13.434,28.69C144.217,275.017,149.169,285.455,157.651,292.526z M136.071,106.541
			c-4.219,4.252-7.942,8.997-11.067,14.145h-6.799C123.188,114.909,129.246,110.09,136.071,106.541z M108.407,136.359h9.407
			c-1.643,5.019-2.79,10.259-3.348,15.673H104.14C104.859,146.544,106.306,141.282,108.407,136.359z M114.476,167.706
			c0.402,3.914,1.109,7.772,2.112,11.558c-2.835,1.168-5.599,2.473-8.283,3.91c-2.075-4.935-3.481-10.14-4.18-15.468H114.476z
			 M114.279,197.787c-17.413,16.657-28.274,40.108-28.274,66.05c0,7.599,0.917,15.039,2.729,22.261
			c-0.218-0.079-0.442-0.155-0.66-0.235c-3.4-1.241-6.869-2.59-10.354-4.042c-1.43-5.854-2.164-11.886-2.164-17.984
			C75.557,235.511,91.193,210.782,114.279,197.787z M425.937,386.753c-45.393,45.391-105.744,70.39-169.937,70.39
			s-124.544-24.998-169.937-70.39c-34.177-34.177-56.786-76.836-65.876-123.229c13.914,14.48,34.878,26.977,62.513,37.063
			c45.848,16.73,107.394,25.944,173.299,25.944s127.451-9.214,173.298-25.944c27.635-10.085,48.599-22.581,62.513-37.063
			C482.723,309.918,460.113,352.576,425.937,386.753z"/>
	</g>
</g>
<g>
	<g>
		<path d="M189.811,112.849c-4.239,0-7.675,4.294-7.675,9.593c0,5.299,7.675,17.268,7.675,17.268s7.675-11.969,7.675-17.268
			C197.486,117.143,194.05,112.849,189.811,112.849z"/>
	</g>
</g>
<g>
	<g>
		<path d="M223.06,126.621c-2.997-2.998-8.464-2.39-12.211,1.356c-3.746,3.747-6.784,17.637-6.784,17.637s13.891-3.037,17.637-6.783
			C225.449,135.084,226.056,129.617,223.06,126.621z"/>
	</g>
</g>
<g>
	<g>
		<path d="M152.384,152.195c-5.299,0-9.593,3.436-9.593,7.675c0,4.239,4.296,7.675,9.593,7.675c5.299,0,17.268-7.675,17.268-7.675
			S157.682,152.195,152.384,152.195z"/>
	</g>
</g>
<g>
	<g>
		<path d="M227.238,152.195c-5.299,0-17.268,7.675-17.268,7.675s11.969,7.675,17.268,7.675c5.299,0,9.593-3.436,9.593-7.675
			C236.831,155.63,232.536,152.195,227.238,152.195z"/>
	</g>
</g>
<g>
	<g>
		<path d="M168.773,127.978c-3.746-3.746-9.213-4.354-12.211-1.356c-2.997,2.997-2.39,8.464,1.356,12.211
			c3.746,3.746,17.637,6.784,17.637,6.784S172.519,131.724,168.773,127.978z"/>
	</g>
</g>
<g>
	<g>
		<rect x="347.23" y="185.469" width="15.673" height="15.673"/>
	</g>
</g>
<g>
	<g>
		<rect x="347.23" y="263.837" width="15.673" height="15.673"/>
	</g>
</g>
<g>
	<g>
		<rect x="381.155" y="205.072" transform="matrix(0.866 -0.5 0.5 0.866 -54.3393 223.0266)" width="15.673" height="15.673"/>
	</g>
</g>
<g>
	<g>
		<rect x="313.289" y="244.253" transform="matrix(0.866 -0.5 0.5 0.866 -83.0228 194.3427)" width="15.673" height="15.673"/>
	</g>
</g>
<g>
	<g>
		<rect x="381.169" y="244.253" transform="matrix(0.5 -0.866 0.866 0.5 -23.816 462.9277)" width="15.673" height="15.673"/>
	</g>
</g>
<g>
	<g>
		<rect x="313.299" y="205.069" transform="matrix(0.5 -0.866 0.866 0.5 -23.8159 384.5607)" width="15.673" height="15.673"/>
	</g>
</g>
<g>
</g>
<g>
</g>
<g>
</g>
<g>
</g>
<g>
</g>
<g>
</g>
<g>
</g>
<g>
</g>
<g>
</g>
<g>
</g>
<g>
</g>
<g>
</g>
<g>
</g>
<g>
</g>
<g>
</g>
</svg>
